<svg width="17" height="18" viewBox="0 0 17 18" fill="none" xmlns="http://www.w3.org/2000/svg">
<path d="M13.1667 8.16667H14.4167C14.7482 8.16667 15.0661 8.03497 15.3006 7.80055C15.535 7.56613 15.6667 7.24819 15.6667 6.91667C15.6667 6.58515 15.535 6.2672 15.3006 6.03278C15.0661 5.79836 14.7482 5.66667 14.4167 5.66667H13.1667V9.83333M13.1667 13.1667V16.5H14C14.442 16.5 14.866 16.3244 15.1785 16.0118C15.4911 15.6993 15.6667 15.2754 15.6667 14.8333C15.6667 14.3913 15.4911 13.9674 15.1785 13.6548C14.866 13.3423 14.442 13.1667 14 13.1667H13.1667ZM1.5 3.16667C1.5 3.60869 1.67559 4.03262 1.98816 4.34518C2.30072 4.65774 2.72464 4.83333 3.16667 4.83333C3.60869 4.83333 4.03262 4.65774 4.34518 4.34518C4.65774 4.03262 4.83333 3.60869 4.83333 3.16667C4.83333 2.72464 4.65774 2.30072 4.34518 1.98816C4.03262 1.67559 3.60869 1.5 3.16667 1.5C2.72464 1.5 2.30072 1.67559 1.98816 1.98816C1.67559 2.30072 1.5 2.72464 1.5 3.16667Z" stroke="#101828" stroke-width="1.5" stroke-linecap="round" stroke-linejoin="round"/>
<path d="M3.16663 4.83331V7.33331C3.16663 7.55433 3.25442 7.76629 3.4107 7.92257C3.56698 8.07885 3.77895 8.16665 3.99996 8.16665H6.49996M6.49996 8.16665V14C6.49996 14.221 6.58776 14.433 6.74404 14.5892C6.90032 14.7455 7.11228 14.8333 7.33329 14.8333H9.83329M6.49996 8.16665H9.83329" stroke="#101828" stroke-width="1.5" stroke-linecap="round" stroke-linejoin="round"/>
</svg>
